HIERARCHY
ROOT root
{
	OFFSET 0.000000 0.000000 0.000000
	CHANNELS 6 Xposition Yposition Zposition Zrotation Yrotation Xrotation
	JOINT lhip
	{
		OFFSET 0.058581 -0.082280 -0.017664
		CHANNELS 3 Zrotation Yrotation Xrotation
		JOINT lknee
		{
			OFFSET 0.043451 -0.386469 0.008037
			CHANNELS 3 Zrotation Yrotation Xrotation
			JOINT lankle
			{
				OFFSET -0.014790 -0.426874 -0.037428
				CHANNELS 3 Zrotation Yrotation Xrotation
				JOINT ltoe
				{
					OFFSET 0.041054 -0.060286 0.122042
					CHANNELS 3 Zrotation Yrotation Xrotation
					End Site
					{
						OFFSET 0.000000 0.000000 0.000000
					}
				}
			}
		}
	}
	JOINT rhip
	{
		OFFSET -0.060310 -0.090513 -0.013543
		CHANNELS 3 Zrotation Yrotation Xrotation
		JOINT rknee
		{
			OFFSET -0.043257 -0.383688 -0.004843
			CHANNELS 3 Zrotation Yrotation Xrotation
			JOINT rankle
			{
				OFFSET 0.019056 -0.420046 -0.034562
				CHANNELS 3 Zrotation Yrotation Xrotation
				JOINT rtoe
				{
					OFFSET -0.034840 -0.062106 0.130323
					CHANNELS 3 Zrotation Yrotation Xrotation
					End Site
					{
						OFFSET 0.000000 0.000000 0.000000
					}
				}
			}
		}
	}
	JOINT lowerback
	{
		OFFSET 0.004439 0.124404 -0.038385
		CHANNELS 3 Zrotation Yrotation Xrotation
		JOINT upperback
		{
			OFFSET 0.004488 0.137956 0.026820
			CHANNELS 3 Zrotation Yrotation Xrotation
			JOINT chest
			{
				OFFSET -0.002265 0.056032 0.002855
				CHANNELS 3 Zrotation Yrotation Xrotation
				JOINT lowerneck
				{
					OFFSET -0.013390 0.211636 -0.033468
					CHANNELS 3 Zrotation Yrotation Xrotation
					JOINT upperneck
					{
						OFFSET 0.010113 0.088937 0.050410
						CHANNELS 3 Zrotation Yrotation Xrotation
						End Site
						{
							OFFSET 0.000000 0.000000 0.000000
						}
					}
				}
				JOINT lclavicle
				{
					OFFSET 0.071702 0.114000 -0.018898
					CHANNELS 3 Zrotation Yrotation Xrotation
					JOINT lshoulder
					{
						OFFSET 0.122921 0.045205 -0.019046
						CHANNELS 3 Zrotation Yrotation Xrotation
						JOINT lelbow
						{
							OFFSET 0.255332 -0.015649 -0.022946
							CHANNELS 3 Zrotation Yrotation Xrotation
							JOINT lwrist
							{
								OFFSET 0.265709 0.012698 -0.007375
								CHANNELS 3 Zrotation Yrotation Xrotation
								End Site
								{
									OFFSET 0.000000 0.000000 0.000000
								}
							}
						}
					}
				}
				JOINT rclavicle
				{
					OFFSET -0.082954 0.112472 -0.023707
					CHANNELS 3 Zrotation Yrotation Xrotation
					JOINT rshoulder
					{
						OFFSET -0.113228 0.046853 -0.008472
						CHANNELS 3 Zrotation Yrotation Xrotation
						JOINT relbow
						{
							OFFSET -0.260127 -0.014369 -0.031269
							CHANNELS 3 Zrotation Yrotation Xrotation
							JOINT rwrist
							{
								OFFSET -0.269108 0.006794 -0.006027
								CHANNELS 3 Zrotation Yrotation Xrotation
								End Site
								{
									OFFSET 0.000000 0.000000 0.000000
								}
							}
						}
					}
				}
			}
		}
	}
}
MOTION
Frames: 5
Frame Time: 0.033333
-0.072742 -1.030142 1.000852 0.198391 -2.011718 89.526438 1.404499 0.565852 4.015194 0.309492 -12.713387 -5.224977 1.928463 7.421612 -3.101954 0.000000 -0.000000 0.000000 -1.410005 -1.504469 -2.270405 -3.012359 2.909827 5.408211 2.020529 -8.218781 -6.162344 0.000000 -0.000000 0.000000 0.374405 -0.100468 2.493066 -2.660525 -0.214188 -3.968494 -2.344639 -0.754881 3.699674 -1.921061 -1.108333 -4.346245 -0.538943 -0.295462 4.856709 -18.984269 11.023179 0.827054 -63.332375 -4.550794 9.756904 3.373356 -26.811276 29.455308 1.854637 -1.466541 -4.871531 18.362736 -6.292104 -0.870336 67.220627 2.064972 17.616309 -1.669831 22.414200 25.545225 9.297586 0.255916 1.587152 
-0.075018 -1.030753 1.000748 0.439281 -2.155202 89.429284 1.376855 0.569374 4.025996 0.378455 -12.908952 -5.023189 1.794084 7.443404 -3.142296 0.000000 -0.000000 0.000000 -1.420831 -1.394382 -2.234301 -2.963391 2.702854 5.688641 1.942397 -8.378202 -6.236413 0.000000 -0.000000 0.000000 0.176845 -0.154546 2.476507 -2.671045 -0.081261 -4.067781 -2.381575 -0.723922 4.082502 -1.827685 -0.994589 -4.534436 -0.597816 -0.548587 4.743950 -18.824391 11.527223 0.774695 -63.424654 -4.494338 9.738914 3.265856 -27.804322 29.677495 1.939162 -1.604155 -5.218528 18.405358 -6.621765 -0.822095 67.363387 2.134120 17.914124 -1.677122 22.932665 26.064712 9.058680 0.379285 1.286918 
-0.077665 -1.030898 1.001177 0.737759 -2.204931 89.455255 1.598286 0.296613 3.734602 0.131086 -13.003778 -4.574110 1.889861 7.475449 -3.263268 0.000000 -0.000000 0.000000 -1.232144 -1.259422 -2.517877 -2.997986 2.472780 6.265949 1.848777 -8.635833 -6.488131 0.000000 -0.000000 0.000000 0.285839 -0.062707 2.510561 -2.833391 0.173964 -4.012754 -2.693118 -0.700609 3.944050 -1.569431 -1.133795 -4.499348 -0.478793 -0.971916 4.868906 -18.742195 12.432855 0.938218 -62.859243 -4.191156 9.234420 3.235670 -30.565803 30.430441 0.055192 -1.374324 -5.048671 18.507344 -7.048372 -0.900388 67.511110 1.856156 17.626227 -1.939594 23.542828 26.267070 9.993458 0.452613 1.635316 
-0.081395 -1.030508 1.001317 0.880763 -2.365045 89.675331 1.679250 -0.133563 2.997728 -0.046938 -12.948848 -3.640589 2.016633 7.529622 -3.622307 0.000000 -0.000000 0.000000 -1.040381 -1.478687 -3.315911 -3.045110 2.528276 7.270237 1.742800 -8.649220 -6.937388 0.000000 -0.000000 0.000000 0.036678 0.349912 1.989301 -2.796410 0.426265 -3.569884 -2.870388 -0.640735 4.186051 -1.351175 -1.171916 -4.731257 -0.358205 -1.583865 4.840655 -18.149936 12.799270 1.144353 -62.449333 -4.377108 9.370204 3.699045 -32.854716 29.797347 -1.397719 -1.641938 -7.022341 18.595106 -7.220951 -0.938214 67.103900 2.023171 17.699801 -2.187366 24.549404 26.302089 11.498756 0.676231 1.259609 
-0.083259 -1.030126 1.001075 1.109817 -2.351276 89.568990 1.786842 -0.411569 2.797378 -0.045245 -13.088456 -3.170541 2.011468 7.743205 -3.722964 0.000000 -0.000000 0.000000 -0.873252 -1.518018 -3.394117 -3.025182 2.474207 7.615523 1.676051 -8.792753 -6.902559 0.000000 -0.000000 0.000000 0.130980 0.464376 2.190318 -2.855891 0.565782 -3.697324 -2.933042 -0.650545 4.431865 -1.484967 -1.464260 -4.940499 -0.278120 -1.814206 4.928676 -17.723263 13.144181 0.945760 -62.242676 -4.283122 9.422138 3.972110 -34.178930 29.268317 -1.173740 -1.859360 -7.766284 18.440680 -7.248585 -1.204097 66.471107 2.033917 17.953518 -1.736166 25.337163 26.950759 12.117539 0.509486 1.424735 
